<?xml version="1.0" standalone="no"?>
<!DOCTYPE svg PUBLIC "-//W3C//DTD SVG 20010904//EN"
 "http://www.w3.org/TR/2001/REC-SVG-20010904/DTD/svg10.dtd">
<svg version="1.0" xmlns="http://www.w3.org/2000/svg"
 width="512.000000pt" height="512.000000pt" viewBox="0 0 512.000000 512.000000"
 preserveAspectRatio="xMidYMid meet">
<metadata>
Created by potrace 1.14, written by Peter Selinger 2001-2017
</metadata>
<g transform="translate(0.000000,512.000000) scale(0.100000,-0.100000)"
fill="#000000" stroke="none">
<path d="M3165 5100 c-47 -31 -63 -71 -63 -158 0 -42 -1 -82 -1 -87 -1 -6 -18
-17 -38 -24 -21 -7 -68 -27 -105 -43 l-68 -31 -70 67 c-39 36 -80 67 -93 68
-12 1 -31 2 -42 3 -36 3 -69 -22 -176 -132 -142 -146 -147 -173 -43 -282 35
-38 64 -70 64 -72 0 -2 -501 -4 -1112 -3 -799 0 -1127 -3 -1163 -11 -115 -26
-201 -106 -239 -221 -15 -46 -16 -180 -14 -1600 l3 -1549 22 -47 c30 -66 96
-133 162 -165 l56 -28 403 -3 402 -3 25 25 c30 30 32 65 6 97 l-19 24 -399 5
-400 5 -37 29 c-67 51 -77 89 -74 288 l3 172 2395 1 c1317 0 2401 -1 2408 -3
9 -3 12 -47 12 -173 0 -217 -15 -259 -105 -300 -38 -18 -113 -19 -1771 -19
l-1731 0 -27 -21 c-34 -27 -36 -77 -3 -107 23 -22 28 -22 344 -22 l321 0 -4
-82 c-4 -115 -14 -247 -19 -283 -3 -16 -7 -52 -9 -80 -3 -27 -10 -80 -16 -117
l-12 -68 -144 0 c-140 0 -146 -1 -169 -24 -18 -18 -23 -32 -20 -57 9 -69 -61
-64 949 -67 l913 -2 26 24 c20 19 25 31 22 57 -8 61 -29 69 -191 69 -79 0
-144 3 -144 8 0 4 -6 45 -14 92 -20 118 -30 231 -41 447 l-3 83 876 2 877 3
56 28 c66 32 132 99 162 165 l22 47 2 1550 c2 1054 -1 1563 -8 1590 -25 95
-127 199 -222 227 -28 8 -154 12 -377 14 -184 1 -337 2 -339 3 -2 1 26 32 62
70 65 67 67 70 67 122 l0 52 -112 114 c-158 160 -198 167 -315 51 l-62 -61
-78 35 c-43 19 -90 38 -105 42 -17 4 -28 13 -29 24 0 9 -1 53 -2 97 -2 66 -6
86 -25 112 -31 44 -71 53 -237 53 -123 0 -144 -3 -170 -20z m284 -222 c2 -126
21 -154 121 -184 30 -9 92 -34 136 -55 121 -57 147 -53 235 35 31 31 60 56 65
56 5 0 38 -29 74 -65 l64 -64 -67 -70 c-37 -38 -67 -77 -68 -88 0 -10 -2 -26
-4 -35 -2 -9 17 -58 40 -109 24 -51 50 -114 56 -140 14 -54 59 -106 99 -113
14 -2 59 -5 100 -5 l75 -1 0 -95 c1 -59 -3 -95 -10 -96 -5 -1 -46 -2 -90 -4
-99 -3 -88 0 -124 -30 -20 -17 -37 -48 -52 -93 -12 -37 -37 -97 -55 -134 -57
-118 -52 -148 42 -241 l58 -58 -69 -69 -69 -69 -66 64 c-95 91 -111 93 -254
26 -44 -21 -102 -44 -129 -51 -31 -8 -57 -24 -77 -47 -31 -35 -34 -48 -31
-160 l2 -62 -48 -3 c-26 -2 -72 -1 -101 0 l-53 4 1 36 c6 119 1 151 -29 185
-21 23 -48 38 -92 51 -34 11 -98 36 -141 58 -43 21 -87 38 -98 38 -38 0 -77
-23 -135 -81 l-61 -59 -68 69 -69 70 61 62 c91 91 95 121 34 244 -16 33 -39
90 -51 127 -15 46 -32 76 -52 93 -33 27 -32 27 -134 30 -38 2 -74 3 -80 4 -6
1 -10 41 -11 96 l0 95 82 0 c46 0 94 4 107 9 37 14 74 59 82 99 3 19 10 42 14
51 110 224 110 235 8 339 l-61 62 64 65 c35 36 69 65 75 65 5 0 35 -26 65 -56
87 -89 121 -94 237 -35 43 22 103 46 133 55 101 30 120 58 121 184 l1 92 98 0
98 0 1 -92z m-984 -629 c3 -4 0 -18 -6 -33 -12 -25 -15 -26 -101 -26 -120 0
-162 -24 -182 -102 l-6 -28 -854 0 c-914 0 -889 1 -943 -50 -13 -11 -31 -35
-40 -53 -17 -30 -18 -108 -19 -1187 -1 -635 -3 -1164 -3 -1175 -1 -18 -8 -20
-81 -20 l-80 -1 2 1281 c3 1260 3 1281 23 1313 21 35 68 69 110 80 31 9 2171
9 2180 1z m2405 -14 c19 -10 43 -27 54 -39 48 -54 46 -4 46 -1354 l0 -1268
-80 0 c-66 0 -80 2 -81 15 0 9 -2 538 -3 1176 -1 1056 -3 1163 -18 1190 -41
76 -96 105 -201 105 -46 0 -59 4 -63 18 -32 97 -56 112 -180 112 -88 0 -91 1
-103 26 -6 14 -9 29 -7 32 2 4 139 7 303 7 269 -1 301 -3 333 -20z m-2694
-391 c2 -71 12 -94 55 -125 26 -18 45 -22 124 -23 l94 -1 22 -60 c12 -33 32
-81 45 -106 l23 -46 -64 -63 c-112 -111 -108 -154 32 -295 109 -109 144 -135
186 -135 41 0 64 15 134 83 l61 60 64 -31 c35 -16 82 -36 106 -43 32 -9 42
-17 43 -33 0 -12 1 -55 2 -96 2 -85 18 -120 68 -145 43 -23 316 -22 359 0 50
26 65 60 67 150 1 44 2 87 2 96 1 10 17 21 43 28 23 7 71 27 106 43 l63 30 68
-65 c115 -111 147 -107 290 35 120 118 129 131 132 178 3 46 -18 84 -85 149
l-55 54 23 46 c13 25 33 73 45 106 l22 60 95 2 c85 1 98 4 129 27 38 30 53 68
50 139 l-1 47 58 0 c44 0 59 -4 66 -17 5 -11 9 -507 8 -1168 l-1 -1150 -2095
0 -2095 0 -1 1155 c-1 746 2 1159 9 1168 7 9 186 12 855 10 l845 -3 3 -61z
m795 -3081 c0 -10 2 -45 4 -79 8 -184 31 -416 50 -512 l4 -22 -470 0 c-443 0
-470 1 -465 18 17 57 42 331 55 595 1 16 28 17 411 17 383 0 410 -1 411 -17z"/>
<path d="M3261 4518 c-101 -15 -139 -51 -119 -110 15 -44 56 -58 121 -43 215
47 431 -81 499 -298 22 -70 23 -175 2 -243 -92 -306 -466 -411 -704 -197 -149
134 -181 349 -81 540 25 46 28 59 19 84 -19 55 -83 66 -124 22 -64 -69 -108
-223 -101 -353 7 -129 28 -199 90 -291 115 -172 280 -262 482 -263 119 0 207
23 302 81 176 107 274 275 280 478 4 172 -48 307 -167 426 -135 136 -312 195
-499 167z"/>
<path d="M3280 4240 c-79 -22 -164 -89 -199 -158 -106 -208 57 -453 292 -438
150 10 265 128 275 281 11 175 -117 314 -293 320 -27 1 -61 -1 -75 -5z m150
-169 c97 -69 92 -204 -10 -258 -55 -29 -93 -29 -145 2 -50 29 -75 75 -75 137
0 36 6 52 36 86 52 62 134 76 194 33z"/>
<path d="M1383 3570 c-43 -26 -55 -51 -57 -127 -2 -35 -7 -67 -12 -72 -5 -5
-27 -14 -49 -21 -22 -7 -49 -19 -61 -26 -18 -13 -24 -9 -68 35 -53 54 -95 69
-142 51 -33 -13 -179 -152 -198 -190 -24 -45 -7 -98 48 -155 l45 -45 -31 -70
c-24 -54 -36 -70 -52 -71 -12 0 -40 -1 -64 -1 -55 0 -103 -33 -118 -78 -15
-45 -11 -248 5 -278 20 -38 58 -55 128 -58 36 -2 68 -5 71 -8 3 -3 17 -35 32
-70 l27 -64 -48 -52 c-27 -29 -49 -61 -50 -71 -2 -24 -2 -56 0 -70 2 -22 174
-189 205 -199 54 -17 90 -4 150 58 l38 40 57 -25 c90 -39 86 -34 87 -99 3
-127 30 -147 196 -151 177 -5 218 24 218 154 l0 59 72 30 71 30 50 -48 c28
-26 60 -49 71 -50 23 -1 54 -1 73 1 13 1 145 129 181 175 40 52 28 101 -40
172 l-40 42 28 71 c15 39 33 71 38 72 6 0 38 2 72 3 113 7 134 39 134 211 0
162 -22 197 -130 201 -30 2 -62 3 -70 3 -9 1 -27 30 -44 72 l-28 71 40 41 c66
69 79 117 44 168 -30 45 -160 169 -189 180 -45 17 -88 2 -139 -46 -26 -25 -49
-45 -53 -45 -3 0 -36 12 -73 27 l-68 26 0 65 c0 124 -39 152 -212 152 -94 0
-118 -3 -145 -20z m207 -192 c0 -33 7 -72 15 -88 14 -28 60 -60 84 -60 6 0 50
-18 99 -39 48 -22 96 -38 107 -36 11 2 25 4 31 4 7 1 33 21 59 45 52 49 59 49
104 -6 l23 -29 -46 -49 c-25 -27 -46 -57 -47 -67 -3 -42 4 -69 31 -122 16 -31
32 -69 36 -86 20 -86 64 -119 157 -117 l58 1 -3 -57 -3 -57 -35 -1 c-19 -1
-49 -2 -66 -3 -43 -1 -89 -46 -104 -101 -7 -25 -25 -69 -40 -100 -15 -30 -29
-64 -31 -75 -6 -40 13 -83 51 -120 22 -22 40 -42 40 -45 0 -4 -16 -23 -36 -43
l-37 -36 -50 44 c-70 61 -90 64 -184 22 -43 -19 -96 -40 -118 -47 -44 -14 -82
-49 -90 -83 -3 -12 -6 -44 -7 -72 -3 -50 -3 -50 -38 -52 -72 -4 -75 -1 -76 72
0 58 -4 68 -29 95 -16 17 -47 35 -70 41 -22 6 -72 26 -110 44 -91 44 -123 40
-187 -22 l-47 -46 -41 40 -41 39 40 39 c69 67 74 110 26 205 -15 30 -33 75
-41 101 -15 49 -60 98 -92 100 -9 0 -39 1 -66 2 l-50 2 -1 48 c-2 52 11 70 47
67 88 -8 135 20 158 92 8 24 29 75 47 113 47 97 37 145 -43 214 l-27 24 42 39
42 40 49 -46 c27 -25 57 -47 67 -47 43 -4 67 2 126 29 34 16 80 35 102 42 75
23 104 68 100 157 l-1 51 58 0 58 -1 0 -59z"/>
<path d="M1439 3055 c-225 -59 -354 -289 -283 -506 82 -254 384 -354 606 -201
200 138 221 447 42 612 -44 40 -117 81 -169 95 -49 13 -147 13 -196 0z m196
-161 c235 -111 158 -467 -100 -467 -140 0 -246 103 -247 241 -1 67 17 114 62
166 71 80 190 106 285 60z"/>
<path d="M2463 1250 c-124 -6 -141 -13 -147 -68 -4 -26 1 -36 26 -57 l31 -26
192 2 c196 2 212 5 232 44 28 54 -13 105 -86 106 -25 0 -66 1 -91 2 -25 1 -95
0 -157 -3z"/>
</g>
</svg>
